<svg width="105" height="45" viewBox="0 0 105 45" fill="none" xmlns="http://www.w3.org/2000/svg">
<path d="M16.6447 29.32C15.6527 29.32 14.778 29.08 14.0207 28.6C13.274 28.12 12.698 27.4693 12.2927 26.648C11.8874 25.816 11.6847 24.8933 11.6847 23.88C11.6847 22.8347 11.9034 21.8693 12.3407 20.984C12.7887 20.0987 13.3914 19.4 14.1487 18.888C14.9167 18.376 15.7487 18.12 16.6447 18.12C17.498 18.12 18.2447 18.2427 18.8847 18.488C19.5354 18.7227 20.0154 19.0267 20.3247 19.4C20.506 19.624 20.618 19.9227 20.6607 20.296C20.7034 20.6587 20.7247 21.16 20.7247 21.8H20.4047C20.202 20.7653 19.8287 20.0027 19.2847 19.512C18.7407 19.0107 18.0207 18.76 17.1247 18.76C15.9727 18.76 15.0447 19.1653 14.3407 19.976C13.6367 20.7867 13.2847 22.088 13.2847 23.88C13.2847 24.7227 13.418 25.5067 13.6847 26.232C13.962 26.9573 14.3887 27.5493 14.9647 28.008C15.5407 28.456 16.2607 28.68 17.1247 28.68C17.9034 28.68 18.5807 28.4933 19.1567 28.12C19.7434 27.7467 20.266 27.1867 20.7247 26.44L21.0447 26.68C20.554 27.64 19.946 28.3227 19.2207 28.728C18.506 29.1227 17.6474 29.32 16.6447 29.32ZM26.0213 29.16C25.296 29.16 24.6667 28.9893 24.1333 28.648C23.6 28.296 23.1947 27.8213 22.9173 27.224C22.64 26.6267 22.5013 25.9653 22.5013 25.24C22.5013 24.5147 22.64 23.8533 22.9173 23.256C23.1947 22.6587 23.6 22.1893 24.1333 21.848C24.6667 21.496 25.296 21.32 26.0213 21.32C26.7467 21.32 27.376 21.496 27.9093 21.848C28.4427 22.1893 28.848 22.6587 29.1253 23.256C29.4027 23.8533 29.5413 24.5147 29.5413 25.24C29.5413 25.9653 29.4027 26.6267 29.1253 27.224C28.848 27.8213 28.4427 28.296 27.9093 28.648C27.376 28.9893 26.7467 29.16 26.0213 29.16ZM26.0213 28.52C26.416 28.52 26.7627 28.376 27.0613 28.088C27.3707 27.8 27.6053 27.4053 27.7653 26.904C27.936 26.4027 28.0213 25.848 28.0213 25.24C28.0213 24.632 27.936 24.0773 27.7653 23.576C27.6053 23.0747 27.3707 22.68 27.0613 22.392C26.7627 22.104 26.416 21.96 26.0213 21.96C25.6267 21.96 25.2747 22.104 24.9653 22.392C24.6667 22.68 24.432 23.0747 24.2613 23.576C24.1013 24.0773 24.0213 24.632 24.0213 25.24C24.0213 25.848 24.1013 26.4027 24.2613 26.904C24.432 27.4053 24.6667 27.8 24.9653 28.088C25.2747 28.376 25.6267 28.52 26.0213 28.52ZM34.3137 29.16C33.5137 29.16 32.8577 28.9467 32.3457 28.52C31.8444 28.0933 31.5937 27.3467 31.5937 26.28V23.4C31.5937 22.856 31.519 22.456 31.3697 22.2C31.2204 21.9333 30.9217 21.8 30.4737 21.8H30.3137V21.48H31.5937C31.9884 21.48 32.2817 21.5333 32.4737 21.64C32.6764 21.736 32.8204 21.9173 32.9057 22.184C32.991 22.4507 33.0337 22.856 33.0337 23.4V26.28C33.0337 27.0267 33.199 27.576 33.5297 27.928C33.871 28.2693 34.2924 28.44 34.7937 28.44C35.359 28.44 35.8924 28.1573 36.3937 27.592V21.48H37.8337V29H37.0337L36.4737 28.36H36.3937C36.1697 28.584 35.8764 28.776 35.5137 28.936C35.1617 29.0853 34.7617 29.16 34.3137 29.16ZM40.4282 23.4C40.4282 22.856 40.3535 22.456 40.2042 22.2C40.0549 21.9333 39.7562 21.8 39.3082 21.8H39.1482V21.48H40.4282C40.8335 21.48 41.1375 21.5387 41.3402 21.656C41.5535 21.7627 41.7029 21.944 41.7882 22.2H41.8682C42.0602 21.9547 42.3162 21.7467 42.6362 21.576C42.9669 21.4053 43.3509 21.32 43.7882 21.32C44.2149 21.32 44.5349 21.4 44.7482 21.56C44.9295 21.6987 45.1162 21.9387 45.3082 22.28L44.6682 22.76C44.5509 22.6 44.3802 22.4827 44.1562 22.408C43.9322 22.3227 43.6762 22.28 43.3882 22.28C43.0682 22.28 42.7749 22.3547 42.5082 22.504C42.2415 22.6427 42.0282 22.8347 41.8682 23.08V29H40.4282V23.4ZM49.3316 29.16C48.1049 29.16 47.2783 28.9467 46.8516 28.52C46.6703 28.3387 46.5583 28.136 46.5156 27.912C46.4729 27.6773 46.4516 27.32 46.4516 26.84H46.7716C46.8676 27.3733 47.0969 27.7893 47.4596 28.088C47.8329 28.376 48.3503 28.52 49.0116 28.52C49.5983 28.52 50.0356 28.4187 50.3236 28.216C50.6223 28.0133 50.7716 27.7413 50.7716 27.4C50.7716 27.0907 50.6543 26.824 50.4196 26.6C50.1956 26.376 49.8329 26.1627 49.3316 25.96L48.3716 25.56C47.7316 25.304 47.2516 25.0053 46.9316 24.664C46.6116 24.3227 46.4516 23.9013 46.4516 23.4C46.4516 22.7493 46.6969 22.2427 47.1876 21.88C47.6783 21.5067 48.3129 21.32 49.0916 21.32C50.2649 21.32 51.0649 21.5333 51.4916 21.96C51.6729 22.1413 51.7849 22.344 51.8276 22.568C51.8703 22.792 51.8916 23.1493 51.8916 23.64H51.5716C51.4863 23.1067 51.2623 22.696 50.8996 22.408C50.5369 22.1093 50.0409 21.96 49.4116 21.96C48.9103 21.96 48.5156 22.0667 48.2276 22.28C47.9503 22.4827 47.8116 22.7493 47.8116 23.08C47.8116 23.6347 48.2383 24.088 49.0916 24.44L50.0516 24.84C50.7769 25.1387 51.3049 25.4587 51.6356 25.8C51.9663 26.1307 52.1316 26.5573 52.1316 27.08C52.1316 27.7307 51.8703 28.2427 51.3476 28.616C50.8249 28.9787 50.1529 29.16 49.3316 29.16ZM57.0482 29.16C56.3229 29.16 55.7095 28.9893 55.2082 28.648C54.7069 28.296 54.3282 27.8267 54.0722 27.24C53.8162 26.6427 53.6882 25.976 53.6882 25.24C53.6882 24.5147 53.8162 23.8533 54.0722 23.256C54.3282 22.6587 54.6962 22.1893 55.1762 21.848C55.6669 21.496 56.2375 21.32 56.8882 21.32C57.9655 21.32 58.7655 21.624 59.2882 22.232C59.8215 22.8293 60.0882 23.6987 60.0882 24.84L60.0562 25.48H55.2082C55.2082 26.376 55.4002 27.1067 55.7842 27.672C56.1682 28.2373 56.6962 28.52 57.3682 28.52C57.8695 28.52 58.2909 28.4133 58.6322 28.2C58.9842 27.9867 59.3095 27.6667 59.6082 27.24L59.9282 27.48C59.5762 28.0667 59.1655 28.4933 58.6962 28.76C58.2269 29.0267 57.6775 29.16 57.0482 29.16ZM58.5682 24.84C58.5682 23.9013 58.4295 23.1867 58.1522 22.696C57.8749 22.2053 57.4535 21.96 56.8882 21.96C56.5682 21.96 56.2802 22.088 56.0242 22.344C55.7682 22.5893 55.5655 22.9307 55.4162 23.368C55.2775 23.8053 55.2082 24.296 55.2082 24.84H58.5682ZM64.6047 29.16C63.378 29.16 62.5514 28.9467 62.1247 28.52C61.9434 28.3387 61.8314 28.136 61.7887 27.912C61.746 27.6773 61.7247 27.32 61.7247 26.84H62.0447C62.1407 27.3733 62.37 27.7893 62.7327 28.088C63.106 28.376 63.6234 28.52 64.2847 28.52C64.8714 28.52 65.3087 28.4187 65.5967 28.216C65.8954 28.0133 66.0447 27.7413 66.0447 27.4C66.0447 27.0907 65.9274 26.824 65.6927 26.6C65.4687 26.376 65.106 26.1627 64.6047 25.96L63.6447 25.56C63.0047 25.304 62.5247 25.0053 62.2047 24.664C61.8847 24.3227 61.7247 23.9013 61.7247 23.4C61.7247 22.7493 61.97 22.2427 62.4607 21.88C62.9514 21.5067 63.586 21.32 64.3647 21.32C65.538 21.32 66.338 21.5333 66.7647 21.96C66.946 22.1413 67.058 22.344 67.1007 22.568C67.1434 22.792 67.1647 23.1493 67.1647 23.64H66.8447C66.7594 23.1067 66.5354 22.696 66.1727 22.408C65.81 22.1093 65.314 21.96 64.6847 21.96C64.1834 21.96 63.7887 22.0667 63.5007 22.28C63.2234 22.4827 63.0847 22.7493 63.0847 23.08C63.0847 23.6347 63.5114 24.088 64.3647 24.44L65.3247 24.84C66.05 25.1387 66.578 25.4587 66.9087 25.8C67.2394 26.1307 67.4047 26.5573 67.4047 27.08C67.4047 27.7307 67.1434 28.2427 66.6207 28.616C66.098 28.9787 65.426 29.16 64.6047 29.16Z" fill="#4F4F4F"/>
<g clip-path="url(#clip0_7438_908)">
<path d="M85.9812 23.379L89.6937 19.6665L90.7542 20.727L85.9812 25.5L81.2082 20.727L82.2687 19.6665L85.9812 23.379Z" fill="#4F4F4F"/>
</g>
<defs>
<clipPath id="clip0_7438_908">
<rect width="18" height="18" fill="white" transform="matrix(0 1 -1 0 94.9807 13.5)"/>
</clipPath>
</defs>
</svg>
